<?xml version="1.0" encoding="UTF-8"?>
<svg version="1.1" viewBox="0 0 1160 1128" width="1280" height="1280"
    xmlns="http://www.w3.org/2000/svg">
    <path transform="translate(486,41)" d="m0 0 35 1h326l284 1 4 2-12 21-6 10-15 28-13 23-30 54-14 24-28 50-9 15-12 22-15 28-10 17-10-3-22-7-35-8-41-3-11-2-94-1-21 1-4 2-37 2-12 5-12 7-9 7-8 10-5 8-8 20-7 26-6 27-6 23-2 14-2 6-3 16-7 31-5 13-6 11-3 1-5-13-1-2-1-13-3-5-1-18-2-9-1-17-3-17-6-41-3-11-1-15-7-18-9-19-6-8-13-8-15-7-11-3-27-3-15-4-5 1-23 1-25 3-22 1-18 4-16 9-8 7-7 8-10 12-14 20-14 24-10 20-9 15-10 19-3 6-4-2-16-29-12-21-17-32-13-23-15-28-13-23-15-27-12-22-13-23-13-24-14-24-16-28-12-22-10-18-13-23-10-18-14-24-3-6v-2l148-1h286z" fill="#42B683"/>
    <path transform="translate(758,354)" d="m0 0h63l56 1 25 2 25 5 20 6 16 8 13 10 8 9 8 14 4 12 2 13v19l-4 18-5 14-7 10-11 13-13 11-17 11 1 4 14 10 10 14 5 11 3 10 1 8v13l-3 16-7 21-9 21-7 11-13 16-10 8-15 10-16 8-24 7-28 5-16 1-46 1h-165l-8-7-1-5 10-48 21-98 17-79 11-52 12-55 4-16 7-8 4-2zm38 89-3 7-7 32-1 12 3 1h48l10-4 5-5 5-6 4-13v-11l-4-8-6-4-19-1zm-32 138-7 37-3 13v5l1 1h57l10-4 10-9 4-8 2-9v-14l-4-7-8-4-8-1z" fill="#36485C"/>
    <path transform="translate(400,354)" d="m0 0h60l55 2 5 3 6 7 3 11 6 41 6 47 3 21 7 47 6 44 6 45 10 70 1 8v16l-6 7-6 2h-100l-8-4-4-5-3-15-3-21v-4l-116 1-6 12-6 9-10 16-9 9-8 3h-87l-11-3-5 1-11-1-3-3 1-10 8-16 7-13 4-2 2-5 8-14 13-23 12-21 15-27 13-23 14-25 16-28 15-26 14-25 13-23 12-21 15-27 9-16 9-12 6-5 9-3zm28 121-7 10-15 28-14 27-11 21-6 14 64 1 1-2-3-32-3-35-3-31z" fill="#36485C"/>
    <path transform="translate(413,724)" d="m0 0 6 4 14 14 8 7 6 4 7 3 10 3 1 1 36 2 3 2h19l2-2 35-2 5-2 10-1 4-3h14l5-1 6 3 16 3 1 1 31 2 6 2 57 1 17 1 1 2-8 16-13 23-14 24-10 18-13 24-12 21-9 16-15 27-9 16-9 17-24 44-9 16-1 2h-2l-25-45-13-24-12-22-14-24-16-29-9-16-13-24-14-25-14-24-13-23-4-10-1 4-4-1-5-9-5-10-3-9-7-14z" fill="#43B683"/>
    <path transform="translate(597,753)" d="m0 0 7 3 16 3 1 1 31 2 6 2 57 1 17 1 1 2-8 16-13 23-14 24-10 18-13 24-12 21-9 16-15 27-9 16-9 17-24 44-9 16-1 2h-2l-15-27-2-3v-3l4 2 7 10 4 7 1 5 1-4 3-1 1-3h2l3-6 4-9h2l1-6 4-5 3-7 4-8 9-17 4-8h2l-1-3 3-5h2l1-5 6-10 5-8 12-24h2l2-6 6-8 6-12 5-7 7-14 7-11 8-16 3-3 3-7 7-11 4-8 6-10 1-8-3-1-2-1-6-1-40-1-1-1-18-1-13-2-1-1h-10l-25-5-4-1h-19v-3l1-1h12z" fill="#3DA478"/>
    <path transform="translate(1131,44)" d="m0 0 4 1-12 21-6 10-15 28-13 23-30 54-14 24-28 50-9 14-2-4 6-11 5-10 6-11 5-9 2-4h2l2-7 3-3 5-10 3-4 6-11 7-14 7-11 5-10 10-19 5-7 6-12 10-16 6-12 12-21 5-9z" fill="#3DA478"/>
    <path transform="translate(354,329)" d="m0 0 1 3-7 6-7 8-10 12-14 20-14 24-10 20-9 15-10 19-3 6-4-2-16-29-12-21-3-5-1-6 2-1 2 7 3 1 1 6 3 1 6 10 4 3 5 9 3 4-1 4 8 1 1 1v-4h2v-2l3-1 6-11 7-11 4-8 6-10 8-16 6-10 5-5 5-8 1-4h2v-2l8-7 4-6 5-5 5-1v-2z" fill="#3DA377"/>
    <path transform="translate(620,455)" d="m0 0h1v10l-2 6-3 16-7 31-5 13-6 11-3 1-5-13-1-2-1-13-3-5-1-18-1-5v-12l2 1 2 8 1 18 1 3 2 9 2 12 3 1 1-1 5-2 2-5h-2l-1 2-2-1-2-6v-7l-1-5 1-2 4 1 1 1 2-2 3 2 1-2h2l-1-6h2l2-14 2-9 3-8z" fill="#3DA076"/>
    <path transform="translate(141,229)" d="m0 0 4 5 10 15v3l3 1 5 10 8 14 1 3 4 5-1 3 3 1 3 7 5 8 2 6 5 9 3 5 4 4 2 4 5 8v6h2v2h2v5h2v3h2v5h2v3h2v4l3 1 6 11 7 16v2l-3-1-17-32-13-23-13-24-13-23-15-27-16-29-4-7z" fill="#3DA478"/>
    <path transform="translate(45,60)" d="m0 0h2l6 9 1 4 4 4 3 6v2h2l9 15 6 11 12 21 6 12 7 11 6 12 6 10 5 10 4 5 5 11 6 9 5 14-3-1-9-17-14-24-16-28-12-22-10-18-13-23-10-18-8-14z" fill="#3D9E76"/>
    <path transform="translate(455,795)" d="m0 0 3 3 5 9 4 5 12 22v2l4 4v4l3 1 8 16 1 5h2l2 5v2h3l3 6v2h2l3 7 5 10 2 7 2 1 2 5 2 1 1 4 3 3 2 5 5 8 2 5 6 8 7 14 2 7h2l1 7h-2l-8-15-6-11-11-20-12-21-14-25-13-23-11-21-8-14-14-24z" fill="#3DA579"/>
    <path transform="translate(688,317)" d="m0 0 3 2-16 9-11 8-6 7-7 10-8 19-6 21-8 35-6 23-2 1 1-11 5-17 5-22 3-17 3-11 6-16 8-14 3-4h2l2-4 8-8 7-4z" fill="#3DA478"/>
    <path transform="translate(987,303)" d="m0 0h2l-2 6-7 12-6 11-3 5-10-3-22-7-31-7-2-2 1-1h8l5 1 1 2 8-1 10 4 1 1h8l17 4v2l5-1 7-11 5-9z" fill="#3DA478"/>
    <path transform="translate(597,753)" d="m0 0 7 3 16 3 1 1 31 2 12 3-1 2h-11l-13-2-1-1h-10l-25-5-4-1h-19v-3l1-1h12z" fill="#3DA578"/>
    <path transform="translate(583,475)" d="m0 0 2 1 2 8 1 18 1 3 2 9 2 12 3 1 2 4v5l-5 2-4-10-1-13-3-5-1-18-1-5z" fill="#3DA277"/>
    <path transform="translate(425,309)" d="m0 0 40 1-2 2-3 1-23 1-16 2h-16l3-2h8l5-4z" fill="#3DA578"/>
    <path transform="translate(637,382)" d="m0 0h2l-2 11-8 35-6 23-2 1 1-11 5-17 5-22 3-17z" fill="#3FA97B"/>
    <path transform="translate(861,314)" d="m0 0h36l6 1v2l2 1h-17l-25-2z" fill="#3EA679"/>
    <path transform="translate(488,314)" d="m0 0h14l7 2 9 1v2l3-1v2l5 2-1 2-11-3-7-2-18-2-2-2z" fill="#3EA679"/>
    <path transform="translate(436,746)" d="m0 0 4 2 7 5 7 3 10 3v4l-3-1v-2l-4 1-7-3h-4v-2h-5l-5-8z" fill="#3DA478"/>
    <path transform="translate(620,455)" d="m0 0h1v10l-2 6-3 16-2 4-2-3 2-12 4-13z" fill="#3DA478"/>
    <path transform="translate(635,761)" d="m0 0 17 1 12 3-1 2h-11l-13-2-1-1h-10l-4-2z" fill="#3EA579"/>
    <path transform="translate(540,761)" d="m0 0h14l5 1v1l-11 1h-7l-12 2h-9l5-4z" fill="#3DA578"/>
    <path transform="translate(588,513)" d="m0 0 3 1 2 12 3 1 2 4v5l-5 2-4-10z" fill="#3DA478"/>
    <path transform="translate(45,60)" d="m0 0h2l6 9 1 4 4 4 4 9 2 6-4-4-11-20z" fill="#375560"/>
    <path transform="translate(603,757)" d="m0 0h9l9 3 14 1v1h-19l-13-3z" fill="#3FA97B"/>
    <path transform="translate(907,317)" d="m0 0h8l5 1 1 2 3 1v2l-16-3-2-2z" fill="#3EA579"/>
    <path transform="translate(423,747)" d="m0 0 4 5 5 8 3 6-1 4-4-6-7-14z" fill="#FEFEFE"/>
    <path transform="translate(575,757)" d="m0 0 3 1-4 1v2l-10 2h-3l2-4 2-1z" fill="#3DA478"/>
    <path transform="translate(440,768)" d="m0 0 3 1 4 9 3 9h-2l-8-15z" fill="#3EA679"/>
    <path transform="translate(583,475)" d="m0 0 2 1 2 8-1 5-2 3-1-5z" fill="#3EA579"/>
    <path transform="translate(184,303)" d="m0 0 2 2 5 11v2l-3-1-6-11v-2z" fill="#3EA579"/>
    <path transform="translate(37,44)" d="m0 0 4 4 3 6 3 5-3 1-7-13z" fill="#3DA579"/>
    <path transform="translate(486,762)" d="m0 0h15v4l-13-2z" fill="#3EA579"/>
    <path transform="translate(594,529)" d="m0 0 4 2v5l-5 2z" fill="#42B683"/>
    <path transform="translate(597,753)" d="m0 0 7 3-1 2-10-1v-3z" fill="#3EA679"/>
    <path transform="translate(45,60)" d="m0 0h2l6 9v5l-3-4z" fill="#375761"/>
    <path transform="translate(540,761)" d="m0 0h14l5 1v1l-10 1-1-1-8-1z" fill="#3FAA7C"/>
    <path transform="translate(631,408)" d="m0 0h1v7l-3 9h-1l1-8z" fill="#3EA679"/>
    <path transform="translate(624,438)" d="m0 0h1l-1 9-2 5-1-3 2-10z" fill="#3EA679"/>
</svg>
